<svg xmlns="http://www.w3.org/2000/svg" xmlns:xlink="http://www.w3.org/1999/xlink" xml:space="preserve" width="800" height="800"><rect x="0" y="0" width="800" height="800" style="fill: rgb(255, 255, 255); fill-opacity: 1;"/><g class="subplot xy"><rect x="80" y="100" width="605" height="620" style="stroke-width: 0px; fill: rgb(250, 250, 250); fill-opacity: 1;"/><g transform="translate(80,100)"/><g/><g transform="translate(80,100)"/><g/><svg preserveAspectRatio="none" x="80" y="100" width="605" height="620" viewBox="0 0 605 620" style="fill: none;"><g class="maplayer"/><g class="barlayer"/><g class="errorlayer"><g class="errorbars"/><g class="errorbars"/><g class="errorbars"/><g class="errorbars"/><g class="errorbars"/><g class="errorbars"/><g class="errorbars"/><g class="errorbars"/></g><g class="boxlayer"/><g class="scatterlayer"><g class="trace scatter" style="stroke-miterlimit: 2; opacity: 1;"><g class="points"><path class="point" transform="translate(354.1,369.22)" d="M8.66,-5V5L0,10L-8.66,5V-5L0,-10Z" style="opacity: 0.7; stroke-width: 0px; fill: rgb(0, 0, 255); fill-opacity: 1;"/><path class="point" transform="translate(295.13,369.22)" d="M8.66,-5V5L0,10L-8.66,5V-5L0,-10Z" style="opacity: 0.7; stroke-width: 0px; fill: rgb(0, 0, 255); fill-opacity: 1;"/><path class="point" transform="translate(309.87,398.83)" d="M8.66,-5V5L0,10L-8.66,5V-5L0,-10Z" style="opacity: 0.7; stroke-width: 0px; fill: rgb(0, 0, 255); fill-opacity: 1;"/><path class="point" transform="translate(324.61,369.22)" d="M8.66,-5V5L0,10L-8.66,5V-5L0,-10Z" style="opacity: 0.7; stroke-width: 0px; fill: rgb(0, 0, 255); fill-opacity: 1;"/><path class="point" transform="translate(339.36,339.61)" d="M8.66,-5V5L0,10L-8.66,5V-5L0,-10Z" style="opacity: 0.7; stroke-width: 0px; fill: rgb(0, 0, 255); fill-opacity: 1;"/><path class="point" transform="translate(309.87,339.61)" d="M8.66,-5V5L0,10L-8.66,5V-5L0,-10Z" style="opacity: 0.7; stroke-width: 0px; fill: rgb(0, 0, 255); fill-opacity: 1;"/><path class="point" transform="translate(383.59,369.22)" d="M8.66,-5V5L0,10L-8.66,5V-5L0,-10Z" style="opacity: 0.7; stroke-width: 0px; fill: rgb(0, 0, 255); fill-opacity: 1;"/><path class="point" transform="translate(354.1,310)" d="M8.66,-5V5L0,10L-8.66,5V-5L0,-10Z" style="opacity: 0.7; stroke-width: 0px; fill: rgb(0, 0, 255); fill-opacity: 1;"/><path class="point" transform="translate(339.36,398.83)" d="M8.66,-5V5L0,10L-8.66,5V-5L0,-10Z" style="opacity: 0.7; stroke-width: 0px; fill: rgb(0, 0, 255); fill-opacity: 1;"/><path class="point" transform="translate(280.39,398.83)" d="M8.66,-5V5L0,10L-8.66,5V-5L0,-10Z" style="opacity: 0.7; stroke-width: 0px; fill: rgb(0, 0, 255); fill-opacity: 1;"/><path class="point" transform="translate(280.39,339.61)" d="M8.66,-5V5L0,10L-8.66,5V-5L0,-10Z" style="opacity: 0.7; stroke-width: 0px; fill: rgb(0, 0, 255); fill-opacity: 1;"/><path class="point" transform="translate(398.33,398.83)" d="M8.66,-5V5L0,10L-8.66,5V-5L0,-10Z" style="opacity: 0.7; stroke-width: 0px; fill: rgb(0, 0, 255); fill-opacity: 1;"/><path class="point" transform="translate(295.13,428.44)" d="M8.66,-5V5L0,10L-8.66,5V-5L0,-10Z" style="opacity: 0.7; stroke-width: 0px; fill: rgb(0, 0, 255); fill-opacity: 1;"/><path class="point" transform="translate(368.84,339.61)" d="M8.66,-5V5L0,10L-8.66,5V-5L0,-10Z" style="opacity: 0.7; stroke-width: 0px; fill: rgb(0, 0, 255); fill-opacity: 1;"/><path class="point" transform="translate(295.13,310)" d="M8.66,-5V5L0,10L-8.66,5V-5L0,-10Z" style="opacity: 0.7; stroke-width: 0px; fill: rgb(0, 0, 255); fill-opacity: 1;"/><path class="point" transform="translate(413.07,369.22)" d="M8.66,-5V5L0,10L-8.66,5V-5L0,-10Z" style="opacity: 0.7; stroke-width: 0px; fill: rgb(0, 0, 255); fill-opacity: 1;"/><path class="point" transform="translate(368.84,398.83)" d="M8.66,-5V5L0,10L-8.66,5V-5L0,-10Z" style="opacity: 0.7; stroke-width: 0px; fill: rgb(0, 0, 255); fill-opacity: 1;"/><path class="point" transform="translate(250.9,339.61)" d="M8.66,-5V5L0,10L-8.66,5V-5L0,-10Z" style="opacity: 0.7; stroke-width: 0px; fill: rgb(0, 0, 255); fill-opacity: 1;"/><path class="point" transform="translate(324.61,310)" d="M8.66,-5V5L0,10L-8.66,5V-5L0,-10Z" style="opacity: 0.7; stroke-width: 0px; fill: rgb(0, 0, 255); fill-opacity: 1;"/><path class="point" transform="translate(265.64,369.22)" d="M8.66,-5V5L0,10L-8.66,5V-5L0,-10Z" style="opacity: 0.7; stroke-width: 0px; fill: rgb(0, 0, 255); fill-opacity: 1;"/><path class="point" transform="translate(398.33,339.61)" d="M8.66,-5V5L0,10L-8.66,5V-5L0,-10Z" style="opacity: 0.7; stroke-width: 0px; fill: rgb(0, 0, 255); fill-opacity: 1;"/><path class="point" transform="translate(354.1,428.44)" d="M8.66,-5V5L0,10L-8.66,5V-5L0,-10Z" style="opacity: 0.7; stroke-width: 0px; fill: rgb(0, 0, 255); fill-opacity: 1;"/><path class="point" transform="translate(383.59,428.44)" d="M8.66,-5V5L0,10L-8.66,5V-5L0,-10Z" style="opacity: 0.7; stroke-width: 0px; fill: rgb(0, 0, 255); fill-opacity: 1;"/><path class="point" transform="translate(265.64,428.44)" d="M8.66,-5V5L0,10L-8.66,5V-5L0,-10Z" style="opacity: 0.7; stroke-width: 0px; fill: rgb(0, 0, 255); fill-opacity: 1;"/><path class="point" transform="translate(457.3,398.83)" d="M8.66,-5V5L0,10L-8.66,5V-5L0,-10Z" style="opacity: 0.7; stroke-width: 0px; fill: rgb(0, 0, 255); fill-opacity: 1;"/><path class="point" transform="translate(309.87,280.39)" d="M8.66,-5V5L0,10L-8.66,5V-5L0,-10Z" style="opacity: 0.7; stroke-width: 0px; fill: rgb(0, 0, 255); fill-opacity: 1;"/><path class="point" transform="translate(309.87,161.94)" d="M8.66,-5V5L0,10L-8.66,5V-5L0,-10Z" style="opacity: 0.7; stroke-width: 0px; fill: rgb(0, 0, 255); fill-opacity: 1;"/><path class="point" transform="translate(383.59,310)" d="M8.66,-5V5L0,10L-8.66,5V-5L0,-10Z" style="opacity: 0.7; stroke-width: 0px; fill: rgb(0, 0, 255); fill-opacity: 1;"/><path class="point" transform="translate(427.81,398.83)" d="M8.66,-5V5L0,10L-8.66,5V-5L0,-10Z" style="opacity: 0.7; stroke-width: 0px; fill: rgb(0, 0, 255); fill-opacity: 1;"/><path class="point" transform="translate(368.84,280.39)" d="M8.66,-5V5L0,10L-8.66,5V-5L0,-10Z" style="opacity: 0.7; stroke-width: 0px; fill: rgb(0, 0, 255); fill-opacity: 1;"/><path class="point" transform="translate(339.36,280.39)" d="M8.66,-5V5L0,10L-8.66,5V-5L0,-10Z" style="opacity: 0.7; stroke-width: 0px; fill: rgb(0, 0, 255); fill-opacity: 1;"/><path class="point" transform="translate(324.61,428.44)" d="M8.66,-5V5L0,10L-8.66,5V-5L0,-10Z" style="opacity: 0.7; stroke-width: 0px; fill: rgb(0, 0, 255); fill-opacity: 1;"/><path class="point" transform="translate(265.64,310)" d="M8.66,-5V5L0,10L-8.66,5V-5L0,-10Z" style="opacity: 0.7; stroke-width: 0px; fill: rgb(0, 0, 255); fill-opacity: 1;"/><path class="point" transform="translate(457.3,339.61)" d="M8.66,-5V5L0,10L-8.66,5V-5L0,-10Z" style="opacity: 0.7; stroke-width: 0px; fill: rgb(0, 0, 255); fill-opacity: 1;"/><path class="point" transform="translate(295.13,250.78)" d="M8.66,-5V5L0,10L-8.66,5V-5L0,-10Z" style="opacity: 0.7; stroke-width: 0px; fill: rgb(0, 0, 255); fill-opacity: 1;"/><path class="point" transform="translate(250.9,398.83)" d="M8.66,-5V5L0,10L-8.66,5V-5L0,-10Z" style="opacity: 0.7; stroke-width: 0px; fill: rgb(0, 0, 255); fill-opacity: 1;"/><path class="point" transform="translate(442.56,369.22)" d="M8.66,-5V5L0,10L-8.66,5V-5L0,-10Z" style="opacity: 0.7; stroke-width: 0px; fill: rgb(0, 0, 255); fill-opacity: 1;"/><path class="point" transform="translate(280.39,221.17)" d="M8.66,-5V5L0,10L-8.66,5V-5L0,-10Z" style="opacity: 0.7; stroke-width: 0px; fill: rgb(0, 0, 255); fill-opacity: 1;"/><path class="point" transform="translate(442.56,310)" d="M8.66,-5V5L0,10L-8.66,5V-5L0,-10Z" style="opacity: 0.7; stroke-width: 0px; fill: rgb(0, 0, 255); fill-opacity: 1;"/><path class="point" transform="translate(221.41,339.61)" d="M8.66,-5V5L0,10L-8.66,5V-5L0,-10Z" style="opacity: 0.7; stroke-width: 0px; fill: rgb(0, 0, 255); fill-opacity: 1;"/><path class="point" transform="translate(280.39,280.39)" d="M8.66,-5V5L0,10L-8.66,5V-5L0,-10Z" style="opacity: 0.7; stroke-width: 0px; fill: rgb(0, 0, 255); fill-opacity: 1;"/><path class="point" transform="translate(221.41,398.83)" d="M8.66,-5V5L0,10L-8.66,5V-5L0,-10Z" style="opacity: 0.7; stroke-width: 0px; fill: rgb(0, 0, 255); fill-opacity: 1;"/><path class="point" transform="translate(309.87,458.06)" d="M8.66,-5V5L0,10L-8.66,5V-5L0,-10Z" style="opacity: 0.7; stroke-width: 0px; fill: rgb(0, 0, 255); fill-opacity: 1;"/><path class="point" transform="translate(265.64,250.78)" d="M8.66,-5V5L0,10L-8.66,5V-5L0,-10Z" style="opacity: 0.7; stroke-width: 0px; fill: rgb(0, 0, 255); fill-opacity: 1;"/><path class="point" transform="translate(413.07,428.44)" d="M8.66,-5V5L0,10L-8.66,5V-5L0,-10Z" style="opacity: 0.7; stroke-width: 0px; fill: rgb(0, 0, 255); fill-opacity: 1;"/><path class="point" transform="translate(324.61,250.78)" d="M8.66,-5V5L0,10L-8.66,5V-5L0,-10Z" style="opacity: 0.7; stroke-width: 0px; fill: rgb(0, 0, 255); fill-opacity: 1;"/><path class="point" transform="translate(368.84,458.06)" d="M8.66,-5V5L0,10L-8.66,5V-5L0,-10Z" style="opacity: 0.7; stroke-width: 0px; fill: rgb(0, 0, 255); fill-opacity: 1;"/><path class="point" transform="translate(250.9,280.39)" d="M8.66,-5V5L0,10L-8.66,5V-5L0,-10Z" style="opacity: 0.7; stroke-width: 0px; fill: rgb(0, 0, 255); fill-opacity: 1;"/><path class="point" transform="translate(413.07,310)" d="M8.66,-5V5L0,10L-8.66,5V-5L0,-10Z" style="opacity: 0.7; stroke-width: 0px; fill: rgb(0, 0, 255); fill-opacity: 1;"/><path class="point" transform="translate(280.39,458.06)" d="M8.66,-5V5L0,10L-8.66,5V-5L0,-10Z" style="opacity: 0.7; stroke-width: 0px; fill: rgb(0, 0, 255); fill-opacity: 1;"/><path class="point" transform="translate(295.13,191.56)" d="M8.66,-5V5L0,10L-8.66,5V-5L0,-10Z" style="opacity: 0.7; stroke-width: 0px; fill: rgb(0, 0, 255); fill-opacity: 1;"/><path class="point" transform="translate(354.1,487.67)" d="M8.66,-5V5L0,10L-8.66,5V-5L0,-10Z" style="opacity: 0.7; stroke-width: 0px; fill: rgb(0, 0, 255); fill-opacity: 1;"/><path class="point" transform="translate(236.16,369.22)" d="M8.66,-5V5L0,10L-8.66,5V-5L0,-10Z" style="opacity: 0.7; stroke-width: 0px; fill: rgb(0, 0, 255); fill-opacity: 1;"/><path class="point" transform="translate(191.93,398.83)" d="M8.66,-5V5L0,10L-8.66,5V-5L0,-10Z" style="opacity: 0.7; stroke-width: 0px; fill: rgb(0, 0, 255); fill-opacity: 1;"/><path class="point" transform="translate(398.33,280.39)" d="M8.66,-5V5L0,10L-8.66,5V-5L0,-10Z" style="opacity: 0.7; stroke-width: 0px; fill: rgb(0, 0, 255); fill-opacity: 1;"/><path class="point" transform="translate(236.16,310)" d="M8.66,-5V5L0,10L-8.66,5V-5L0,-10Z" style="opacity: 0.7; stroke-width: 0px; fill: rgb(0, 0, 255); fill-opacity: 1;"/><path class="point" transform="translate(427.81,458.06)" d="M8.66,-5V5L0,10L-8.66,5V-5L0,-10Z" style="opacity: 0.7; stroke-width: 0px; fill: rgb(0, 0, 255); fill-opacity: 1;"/><path class="point" transform="translate(398.33,458.06)" d="M8.66,-5V5L0,10L-8.66,5V-5L0,-10Z" style="opacity: 0.7; stroke-width: 0px; fill: rgb(0, 0, 255); fill-opacity: 1;"/><path class="point" transform="translate(427.81,339.61)" d="M8.66,-5V5L0,10L-8.66,5V-5L0,-10Z" style="opacity: 0.7; stroke-width: 0px; fill: rgb(0, 0, 255); fill-opacity: 1;"/><path class="point" transform="translate(516.27,398.83)" d="M8.66,-5V5L0,10L-8.66,5V-5L0,-10Z" style="opacity: 0.7; stroke-width: 0px; fill: rgb(0, 0, 255); fill-opacity: 1;"/><path class="point" transform="translate(236.16,428.44)" d="M8.66,-5V5L0,10L-8.66,5V-5L0,-10Z" style="opacity: 0.7; stroke-width: 0px; fill: rgb(0, 0, 255); fill-opacity: 1;"/><path class="point" transform="translate(486.79,339.61)" d="M8.66,-5V5L0,10L-8.66,5V-5L0,-10Z" style="opacity: 0.7; stroke-width: 0px; fill: rgb(0, 0, 255); fill-opacity: 1;"/><path class="point" transform="translate(354.1,250.78)" d="M8.66,-5V5L0,10L-8.66,5V-5L0,-10Z" style="opacity: 0.7; stroke-width: 0px; fill: rgb(0, 0, 255); fill-opacity: 1;"/><path class="point" transform="translate(339.36,458.06)" d="M8.66,-5V5L0,10L-8.66,5V-5L0,-10Z" style="opacity: 0.7; stroke-width: 0px; fill: rgb(0, 0, 255); fill-opacity: 1;"/><path class="point" transform="translate(442.56,428.44)" d="M8.66,-5V5L0,10L-8.66,5V-5L0,-10Z" style="opacity: 0.7; stroke-width: 0px; fill: rgb(0, 0, 255); fill-opacity: 1;"/><path class="point" transform="translate(339.36,221.17)" d="M8.66,-5V5L0,10L-8.66,5V-5L0,-10Z" style="opacity: 0.7; stroke-width: 0px; fill: rgb(0, 0, 255); fill-opacity: 1;"/><path class="point" transform="translate(383.59,250.78)" d="M8.66,-5V5L0,10L-8.66,5V-5L0,-10Z" style="opacity: 0.7; stroke-width: 0px; fill: rgb(0, 0, 255); fill-opacity: 1;"/><path class="point" transform="translate(427.81,280.39)" d="M8.66,-5V5L0,10L-8.66,5V-5L0,-10Z" style="opacity: 0.7; stroke-width: 0px; fill: rgb(0, 0, 255); fill-opacity: 1;"/><path class="point" transform="translate(309.87,221.17)" d="M8.66,-5V5L0,10L-8.66,5V-5L0,-10Z" style="opacity: 0.7; stroke-width: 0px; fill: rgb(0, 0, 255); fill-opacity: 1;"/><path class="point" transform="translate(457.3,458.06)" d="M8.66,-5V5L0,10L-8.66,5V-5L0,-10Z" style="opacity: 0.7; stroke-width: 0px; fill: rgb(0, 0, 255); fill-opacity: 1;"/><path class="point" transform="translate(191.93,339.61)" d="M8.66,-5V5L0,10L-8.66,5V-5L0,-10Z" style="opacity: 0.7; stroke-width: 0px; fill: rgb(0, 0, 255); fill-opacity: 1;"/><path class="point" transform="translate(221.41,458.06)" d="M8.66,-5V5L0,10L-8.66,5V-5L0,-10Z" style="opacity: 0.7; stroke-width: 0px; fill: rgb(0, 0, 255); fill-opacity: 1;"/><path class="point" transform="translate(206.67,369.22)" d="M8.66,-5V5L0,10L-8.66,5V-5L0,-10Z" style="opacity: 0.7; stroke-width: 0px; fill: rgb(0, 0, 255); fill-opacity: 1;"/><path class="point" transform="translate(295.13,487.67)" d="M8.66,-5V5L0,10L-8.66,5V-5L0,-10Z" style="opacity: 0.7; stroke-width: 0px; fill: rgb(0, 0, 255); fill-opacity: 1;"/><path class="point" transform="translate(324.61,487.67)" d="M8.66,-5V5L0,10L-8.66,5V-5L0,-10Z" style="opacity: 0.7; stroke-width: 0px; fill: rgb(0, 0, 255); fill-opacity: 1;"/><path class="point" transform="translate(501.53,428.44)" d="M8.66,-5V5L0,10L-8.66,5V-5L0,-10Z" style="opacity: 0.7; stroke-width: 0px; fill: rgb(0, 0, 255); fill-opacity: 1;"/><path class="point" transform="translate(250.9,458.06)" d="M8.66,-5V5L0,10L-8.66,5V-5L0,-10Z" style="opacity: 0.7; stroke-width: 0px; fill: rgb(0, 0, 255); fill-opacity: 1;"/><path class="point" transform="translate(236.16,487.67)" d="M8.66,-5V5L0,10L-8.66,5V-5L0,-10Z" style="opacity: 0.7; stroke-width: 0px; fill: rgb(0, 0, 255); fill-opacity: 1;"/><path class="point" transform="translate(265.64,191.56)" d="M8.66,-5V5L0,10L-8.66,5V-5L0,-10Z" style="opacity: 0.7; stroke-width: 0px; fill: rgb(0, 0, 255); fill-opacity: 1;"/><path class="point" transform="translate(236.16,191.56)" d="M8.66,-5V5L0,10L-8.66,5V-5L0,-10Z" style="opacity: 0.7; stroke-width: 0px; fill: rgb(0, 0, 255); fill-opacity: 1;"/><path class="point" transform="translate(206.67,310)" d="M8.66,-5V5L0,10L-8.66,5V-5L0,-10Z" style="opacity: 0.7; stroke-width: 0px; fill: rgb(0, 0, 255); fill-opacity: 1;"/><path class="point" transform="translate(472.04,428.44)" d="M8.66,-5V5L0,10L-8.66,5V-5L0,-10Z" style="opacity: 0.7; stroke-width: 0px; fill: rgb(0, 0, 255); fill-opacity: 1;"/><path class="point" transform="translate(501.53,369.22)" d="M8.66,-5V5L0,10L-8.66,5V-5L0,-10Z" style="opacity: 0.7; stroke-width: 0px; fill: rgb(0, 0, 255); fill-opacity: 1;"/><path class="point" transform="translate(413.07,487.67)" d="M8.66,-5V5L0,10L-8.66,5V-5L0,-10Z" style="opacity: 0.7; stroke-width: 0px; fill: rgb(0, 0, 255); fill-opacity: 1;"/><path class="point" transform="translate(191.93,458.06)" d="M8.66,-5V5L0,10L-8.66,5V-5L0,-10Z" style="opacity: 0.7; stroke-width: 0px; fill: rgb(0, 0, 255); fill-opacity: 1;"/><path class="point" transform="translate(486.79,458.06)" d="M8.66,-5V5L0,10L-8.66,5V-5L0,-10Z" style="opacity: 0.7; stroke-width: 0px; fill: rgb(0, 0, 255); fill-opacity: 1;"/><path class="point" transform="translate(472.04,310)" d="M8.66,-5V5L0,10L-8.66,5V-5L0,-10Z" style="opacity: 0.7; stroke-width: 0px; fill: rgb(0, 0, 255); fill-opacity: 1;"/><path class="point" transform="translate(147.7,428.44)" d="M8.66,-5V5L0,10L-8.66,5V-5L0,-10Z" style="opacity: 0.7; stroke-width: 0px; fill: rgb(0, 0, 255); fill-opacity: 1;"/><path class="point" transform="translate(472.04,191.56)" d="M8.66,-5V5L0,10L-8.66,5V-5L0,-10Z" style="opacity: 0.7; stroke-width: 0px; fill: rgb(0, 0, 255); fill-opacity: 1;"/><path class="point" transform="translate(221.41,280.39)" d="M8.66,-5V5L0,10L-8.66,5V-5L0,-10Z" style="opacity: 0.7; stroke-width: 0px; fill: rgb(0, 0, 255); fill-opacity: 1;"/><path class="point" transform="translate(368.84,221.17)" d="M8.66,-5V5L0,10L-8.66,5V-5L0,-10Z" style="opacity: 0.7; stroke-width: 0px; fill: rgb(0, 0, 255); fill-opacity: 1;"/><path class="point" transform="translate(265.64,487.67)" d="M8.66,-5V5L0,10L-8.66,5V-5L0,-10Z" style="opacity: 0.7; stroke-width: 0px; fill: rgb(0, 0, 255); fill-opacity: 1;"/><path class="point" transform="translate(457.3,280.39)" d="M8.66,-5V5L0,10L-8.66,5V-5L0,-10Z" style="opacity: 0.7; stroke-width: 0px; fill: rgb(0, 0, 255); fill-opacity: 1;"/><path class="point" transform="translate(280.39,517.28)" d="M8.66,-5V5L0,10L-8.66,5V-5L0,-10Z" style="opacity: 0.7; stroke-width: 0px; fill: rgb(0, 0, 255); fill-opacity: 1;"/><path class="point" transform="translate(250.9,221.17)" d="M8.66,-5V5L0,10L-8.66,5V-5L0,-10Z" style="opacity: 0.7; stroke-width: 0px; fill: rgb(0, 0, 255); fill-opacity: 1;"/><path class="point" transform="translate(206.67,428.44)" d="M8.66,-5V5L0,10L-8.66,5V-5L0,-10Z" style="opacity: 0.7; stroke-width: 0px; fill: rgb(0, 0, 255); fill-opacity: 1;"/><path class="point" transform="translate(191.93,221.17)" d="M8.66,-5V5L0,10L-8.66,5V-5L0,-10Z" style="opacity: 0.7; stroke-width: 0px; fill: rgb(0, 0, 255); fill-opacity: 1;"/><path class="point" transform="translate(486.79,398.83)" d="M8.66,-5V5L0,10L-8.66,5V-5L0,-10Z" style="opacity: 0.7; stroke-width: 0px; fill: rgb(0, 0, 255); fill-opacity: 1;"/><path class="point" transform="translate(177.19,369.22)" d="M8.66,-5V5L0,10L-8.66,5V-5L0,-10Z" style="opacity: 0.7; stroke-width: 0px; fill: rgb(0, 0, 255); fill-opacity: 1;"/><path class="point" transform="translate(413.07,250.78)" d="M8.66,-5V5L0,10L-8.66,5V-5L0,-10Z" style="opacity: 0.7; stroke-width: 0px; fill: rgb(0, 0, 255); fill-opacity: 1;"/><path class="point" transform="translate(383.59,487.67)" d="M8.66,-5V5L0,10L-8.66,5V-5L0,-10Z" style="opacity: 0.7; stroke-width: 0px; fill: rgb(0, 0, 255); fill-opacity: 1;"/></g></g><g class="trace scatter" style="stroke-miterlimit: 2; opacity: 1;"><g class="points"><path class="point" transform="translate(147.7,250.78)" d="M8.66,-5V5L0,10L-8.66,5V-5L0,-10Z" style="opacity: 0.7; stroke-width: 0px; fill: rgb(255, 153, 51); fill-opacity: 1;"/><path class="point" transform="translate(147.7,191.56)" d="M8.66,-5V5L0,10L-8.66,5V-5L0,-10Z" style="opacity: 0.7; stroke-width: 0px; fill: rgb(255, 153, 51); fill-opacity: 1;"/><path class="point" transform="translate(162.44,221.17)" d="M8.66,-5V5L0,10L-8.66,5V-5L0,-10Z" style="opacity: 0.7; stroke-width: 0px; fill: rgb(255, 153, 51); fill-opacity: 1;"/><path class="point" transform="translate(177.19,191.56)" d="M8.66,-5V5L0,10L-8.66,5V-5L0,-10Z" style="opacity: 0.7; stroke-width: 0px; fill: rgb(255, 153, 51); fill-opacity: 1;"/><path class="point" transform="translate(177.19,250.78)" d="M8.66,-5V5L0,10L-8.66,5V-5L0,-10Z" style="opacity: 0.7; stroke-width: 0px; fill: rgb(255, 153, 51); fill-opacity: 1;"/><path class="point" transform="translate(206.67,250.78)" d="M8.66,-5V5L0,10L-8.66,5V-5L0,-10Z" style="opacity: 0.7; stroke-width: 0px; fill: rgb(255, 153, 51); fill-opacity: 1;"/><path class="point" transform="translate(221.41,221.17)" d="M8.66,-5V5L0,10L-8.66,5V-5L0,-10Z" style="opacity: 0.7; stroke-width: 0px; fill: rgb(255, 153, 51); fill-opacity: 1;"/><path class="point" transform="translate(206.67,191.56)" d="M8.66,-5V5L0,10L-8.66,5V-5L0,-10Z" style="opacity: 0.7; stroke-width: 0px; fill: rgb(255, 153, 51); fill-opacity: 1;"/><path class="point" transform="translate(132.96,221.17)" d="M8.66,-5V5L0,10L-8.66,5V-5L0,-10Z" style="opacity: 0.7; stroke-width: 0px; fill: rgb(255, 153, 51); fill-opacity: 1;"/><path class="point" transform="translate(236.16,250.78)" d="M8.66,-5V5L0,10L-8.66,5V-5L0,-10Z" style="opacity: 0.7; stroke-width: 0px; fill: rgb(255, 153, 51); fill-opacity: 1;"/><path class="point" transform="translate(132.96,161.94)" d="M8.66,-5V5L0,10L-8.66,5V-5L0,-10Z" style="opacity: 0.7; stroke-width: 0px; fill: rgb(255, 153, 51); fill-opacity: 1;"/><path class="point" transform="translate(206.67,132.33)" d="M8.66,-5V5L0,10L-8.66,5V-5L0,-10Z" style="opacity: 0.7; stroke-width: 0px; fill: rgb(255, 153, 51); fill-opacity: 1;"/><path class="point" transform="translate(162.44,161.94)" d="M8.66,-5V5L0,10L-8.66,5V-5L0,-10Z" style="opacity: 0.7; stroke-width: 0px; fill: rgb(255, 153, 51); fill-opacity: 1;"/><path class="point" transform="translate(221.41,161.94)" d="M8.66,-5V5L0,10L-8.66,5V-5L0,-10Z" style="opacity: 0.7; stroke-width: 0px; fill: rgb(255, 153, 51); fill-opacity: 1;"/><path class="point" transform="translate(118.21,191.56)" d="M8.66,-5V5L0,10L-8.66,5V-5L0,-10Z" style="opacity: 0.7; stroke-width: 0px; fill: rgb(255, 153, 51); fill-opacity: 1;"/><path class="point" transform="translate(191.93,161.94)" d="M8.66,-5V5L0,10L-8.66,5V-5L0,-10Z" style="opacity: 0.7; stroke-width: 0px; fill: rgb(255, 153, 51); fill-opacity: 1;"/><path class="point" transform="translate(103.47,280.39)" d="M8.66,-5V5L0,10L-8.66,5V-5L0,-10Z" style="opacity: 0.7; stroke-width: 0px; fill: rgb(255, 153, 51); fill-opacity: 1;"/><path class="point" transform="translate(162.44,280.39)" d="M8.66,-5V5L0,10L-8.66,5V-5L0,-10Z" style="opacity: 0.7; stroke-width: 0px; fill: rgb(255, 153, 51); fill-opacity: 1;"/><path class="point" transform="translate(132.96,102.72)" d="M8.66,-5V5L0,10L-8.66,5V-5L0,-10Z" style="opacity: 0.7; stroke-width: 0px; fill: rgb(255, 153, 51); fill-opacity: 1;"/><path class="point" transform="translate(280.39,161.94)" d="M8.66,-5V5L0,10L-8.66,5V-5L0,-10Z" style="opacity: 0.7; stroke-width: 0px; fill: rgb(255, 153, 51); fill-opacity: 1;"/><path class="point" transform="translate(132.96,280.39)" d="M8.66,-5V5L0,10L-8.66,5V-5L0,-10Z" style="opacity: 0.7; stroke-width: 0px; fill: rgb(255, 153, 51); fill-opacity: 1;"/><path class="point" transform="translate(147.7,132.33)" d="M8.66,-5V5L0,10L-8.66,5V-5L0,-10Z" style="opacity: 0.7; stroke-width: 0px; fill: rgb(255, 153, 51); fill-opacity: 1;"/><path class="point" transform="translate(177.19,132.33)" d="M8.66,-5V5L0,10L-8.66,5V-5L0,-10Z" style="opacity: 0.7; stroke-width: 0px; fill: rgb(255, 153, 51); fill-opacity: 1;"/><path class="point" transform="translate(177.19,310)" d="M8.66,-5V5L0,10L-8.66,5V-5L0,-10Z" style="opacity: 0.7; stroke-width: 0px; fill: rgb(255, 153, 51); fill-opacity: 1;"/><path class="point" transform="translate(250.9,161.94)" d="M8.66,-5V5L0,10L-8.66,5V-5L0,-10Z" style="opacity: 0.7; stroke-width: 0px; fill: rgb(255, 153, 51); fill-opacity: 1;"/><path class="point" transform="translate(221.41,43.5)" d="M8.66,-5V5L0,10L-8.66,5V-5L0,-10Z" style="opacity: 0.7; stroke-width: 0px; fill: rgb(255, 153, 51); fill-opacity: 1;"/><path class="point" transform="translate(103.47,221.17)" d="M8.66,-5V5L0,10L-8.66,5V-5L0,-10Z" style="opacity: 0.7; stroke-width: 0px; fill: rgb(255, 153, 51); fill-opacity: 1;"/><path class="point" transform="translate(118.21,250.78)" d="M8.66,-5V5L0,10L-8.66,5V-5L0,-10Z" style="opacity: 0.7; stroke-width: 0px; fill: rgb(255, 153, 51); fill-opacity: 1;"/><path class="point" transform="translate(236.16,132.33)" d="M8.66,-5V5L0,10L-8.66,5V-5L0,-10Z" style="opacity: 0.7; stroke-width: 0px; fill: rgb(255, 153, 51); fill-opacity: 1;"/><path class="point" transform="translate(73.99,161.94)" d="M8.66,-5V5L0,10L-8.66,5V-5L0,-10Z" style="opacity: 0.7; stroke-width: 0px; fill: rgb(255, 153, 51); fill-opacity: 1;"/><path class="point" transform="translate(103.47,161.94)" d="M8.66,-5V5L0,10L-8.66,5V-5L0,-10Z" style="opacity: 0.7; stroke-width: 0px; fill: rgb(255, 153, 51); fill-opacity: 1;"/><path class="point" transform="translate(191.93,280.39)" d="M8.66,-5V5L0,10L-8.66,5V-5L0,-10Z" style="opacity: 0.7; stroke-width: 0px; fill: rgb(255, 153, 51); fill-opacity: 1;"/><path class="point" transform="translate(118.21,73.11)" d="M8.66,-5V5L0,10L-8.66,5V-5L0,-10Z" style="opacity: 0.7; stroke-width: 0px; fill: rgb(255, 153, 51); fill-opacity: 1;"/><path class="point" transform="translate(177.19,73.11)" d="M8.66,-5V5L0,10L-8.66,5V-5L0,-10Z" style="opacity: 0.7; stroke-width: 0px; fill: rgb(255, 153, 51); fill-opacity: 1;"/><path class="point" transform="translate(73.99,221.17)" d="M8.66,-5V5L0,10L-8.66,5V-5L0,-10Z" style="opacity: 0.7; stroke-width: 0px; fill: rgb(255, 153, 51); fill-opacity: 1;"/><path class="point" transform="translate(88.73,191.56)" d="M8.66,-5V5L0,10L-8.66,5V-5L0,-10Z" style="opacity: 0.7; stroke-width: 0px; fill: rgb(255, 153, 51); fill-opacity: 1;"/><path class="point" transform="translate(118.21,310)" d="M8.66,-5V5L0,10L-8.66,5V-5L0,-10Z" style="opacity: 0.7; stroke-width: 0px; fill: rgb(255, 153, 51); fill-opacity: 1;"/><path class="point" transform="translate(103.47,102.72)" d="M8.66,-5V5L0,10L-8.66,5V-5L0,-10Z" style="opacity: 0.7; stroke-width: 0px; fill: rgb(255, 153, 51); fill-opacity: 1;"/><path class="point" transform="translate(88.73,310)" d="M8.66,-5V5L0,10L-8.66,5V-5L0,-10Z" style="opacity: 0.7; stroke-width: 0px; fill: rgb(255, 153, 51); fill-opacity: 1;"/><path class="point" transform="translate(118.21,132.33)" d="M8.66,-5V5L0,10L-8.66,5V-5L0,-10Z" style="opacity: 0.7; stroke-width: 0px; fill: rgb(255, 153, 51); fill-opacity: 1;"/><path class="point" transform="translate(191.93,43.5)" d="M8.66,-5V5L0,10L-8.66,5V-5L0,-10Z" style="opacity: 0.7; stroke-width: 0px; fill: rgb(255, 153, 51); fill-opacity: 1;"/><path class="point" transform="translate(191.93,102.72)" d="M8.66,-5V5L0,10L-8.66,5V-5L0,-10Z" style="opacity: 0.7; stroke-width: 0px; fill: rgb(255, 153, 51); fill-opacity: 1;"/><path class="point" transform="translate(339.36,102.72)" d="M8.66,-5V5L0,10L-8.66,5V-5L0,-10Z" style="opacity: 0.7; stroke-width: 0px; fill: rgb(255, 153, 51); fill-opacity: 1;"/><path class="point" transform="translate(103.47,339.61)" d="M8.66,-5V5L0,10L-8.66,5V-5L0,-10Z" style="opacity: 0.7; stroke-width: 0px; fill: rgb(255, 153, 51); fill-opacity: 1;"/><path class="point" transform="translate(44.5,221.17)" d="M8.66,-5V5L0,10L-8.66,5V-5L0,-10Z" style="opacity: 0.7; stroke-width: 0px; fill: rgb(255, 153, 51); fill-opacity: 1;"/><path class="point" transform="translate(162.44,102.72)" d="M8.66,-5V5L0,10L-8.66,5V-5L0,-10Z" style="opacity: 0.7; stroke-width: 0px; fill: rgb(255, 153, 51); fill-opacity: 1;"/></g></g><g class="trace scatter" style="stroke-miterlimit: 2; opacity: 1;"><g class="points"><path class="point" transform="translate(132.96,517.28)" d="M8.66,-5V5L0,10L-8.66,5V-5L0,-10Z" style="opacity: 0.7; stroke-width: 0px; fill: rgb(255, 0, 0); fill-opacity: 1;"/><path class="point" transform="translate(206.67,487.67)" d="M8.66,-5V5L0,10L-8.66,5V-5L0,-10Z" style="opacity: 0.7; stroke-width: 0px; fill: rgb(255, 0, 0); fill-opacity: 1;"/><path class="point" transform="translate(221.41,517.28)" d="M8.66,-5V5L0,10L-8.66,5V-5L0,-10Z" style="opacity: 0.7; stroke-width: 0px; fill: rgb(255, 0, 0); fill-opacity: 1;"/><path class="point" transform="translate(177.19,546.89)" d="M8.66,-5V5L0,10L-8.66,5V-5L0,-10Z" style="opacity: 0.7; stroke-width: 0px; fill: rgb(255, 0, 0); fill-opacity: 1;"/><path class="point" transform="translate(191.93,517.28)" d="M8.66,-5V5L0,10L-8.66,5V-5L0,-10Z" style="opacity: 0.7; stroke-width: 0px; fill: rgb(255, 0, 0); fill-opacity: 1;"/><path class="point" transform="translate(236.16,546.89)" d="M8.66,-5V5L0,10L-8.66,5V-5L0,-10Z" style="opacity: 0.7; stroke-width: 0px; fill: rgb(255, 0, 0); fill-opacity: 1;"/><path class="point" transform="translate(206.67,546.89)" d="M8.66,-5V5L0,10L-8.66,5V-5L0,-10Z" style="opacity: 0.7; stroke-width: 0px; fill: rgb(255, 0, 0); fill-opacity: 1;"/><path class="point" transform="translate(162.44,517.28)" d="M8.66,-5V5L0,10L-8.66,5V-5L0,-10Z" style="opacity: 0.7; stroke-width: 0px; fill: rgb(255, 0, 0); fill-opacity: 1;"/><path class="point" transform="translate(147.7,546.89)" d="M8.66,-5V5L0,10L-8.66,5V-5L0,-10Z" style="opacity: 0.7; stroke-width: 0px; fill: rgb(255, 0, 0); fill-opacity: 1;"/><path class="point" transform="translate(162.44,458.06)" d="M8.66,-5V5L0,10L-8.66,5V-5L0,-10Z" style="opacity: 0.7; stroke-width: 0px; fill: rgb(255, 0, 0); fill-opacity: 1;"/><path class="point" transform="translate(147.7,487.67)" d="M8.66,-5V5L0,10L-8.66,5V-5L0,-10Z" style="opacity: 0.7; stroke-width: 0px; fill: rgb(255, 0, 0); fill-opacity: 1;"/><path class="point" transform="translate(132.96,458.06)" d="M8.66,-5V5L0,10L-8.66,5V-5L0,-10Z" style="opacity: 0.7; stroke-width: 0px; fill: rgb(255, 0, 0); fill-opacity: 1;"/><path class="point" transform="translate(250.9,517.28)" d="M8.66,-5V5L0,10L-8.66,5V-5L0,-10Z" style="opacity: 0.7; stroke-width: 0px; fill: rgb(255, 0, 0); fill-opacity: 1;"/><path class="point" transform="translate(177.19,487.67)" d="M8.66,-5V5L0,10L-8.66,5V-5L0,-10Z" style="opacity: 0.7; stroke-width: 0px; fill: rgb(255, 0, 0); fill-opacity: 1;"/><path class="point" transform="translate(177.19,428.44)" d="M8.66,-5V5L0,10L-8.66,5V-5L0,-10Z" style="opacity: 0.7; stroke-width: 0px; fill: rgb(255, 0, 0); fill-opacity: 1;"/><path class="point" transform="translate(265.64,546.89)" d="M8.66,-5V5L0,10L-8.66,5V-5L0,-10Z" style="opacity: 0.7; stroke-width: 0px; fill: rgb(255, 0, 0); fill-opacity: 1;"/><path class="point" transform="translate(103.47,458.06)" d="M8.66,-5V5L0,10L-8.66,5V-5L0,-10Z" style="opacity: 0.7; stroke-width: 0px; fill: rgb(255, 0, 0); fill-opacity: 1;"/><path class="point" transform="translate(118.21,487.67)" d="M8.66,-5V5L0,10L-8.66,5V-5L0,-10Z" style="opacity: 0.7; stroke-width: 0px; fill: rgb(255, 0, 0); fill-opacity: 1;"/><path class="point" transform="translate(383.59,546.89)" d="M8.66,-5V5L0,10L-8.66,5V-5L0,-10Z" style="opacity: 0.7; stroke-width: 0px; fill: rgb(255, 0, 0); fill-opacity: 1;"/><path class="point" transform="translate(118.21,546.89)" d="M8.66,-5V5L0,10L-8.66,5V-5L0,-10Z" style="opacity: 0.7; stroke-width: 0px; fill: rgb(255, 0, 0); fill-opacity: 1;"/><path class="point" transform="translate(103.47,576.5)" d="M8.66,-5V5L0,10L-8.66,5V-5L0,-10Z" style="opacity: 0.7; stroke-width: 0px; fill: rgb(255, 0, 0); fill-opacity: 1;"/></g></g><g class="trace scatter" style="stroke-miterlimit: 2; opacity: 1;"><g class="points"><path class="point" transform="translate(442.56,250.78)" d="M8.66,-5V5L0,10L-8.66,5V-5L0,-10Z" style="opacity: 0.7; stroke-width: 0px; fill: rgb(0, 102, 0); fill-opacity: 1;"/><path class="point" transform="translate(516.27,221.17)" d="M8.66,-5V5L0,10L-8.66,5V-5L0,-10Z" style="opacity: 0.7; stroke-width: 0px; fill: rgb(0, 102, 0); fill-opacity: 1;"/><path class="point" transform="translate(501.53,250.78)" d="M8.66,-5V5L0,10L-8.66,5V-5L0,-10Z" style="opacity: 0.7; stroke-width: 0px; fill: rgb(0, 102, 0); fill-opacity: 1;"/><path class="point" transform="translate(531.01,191.56)" d="M8.66,-5V5L0,10L-8.66,5V-5L0,-10Z" style="opacity: 0.7; stroke-width: 0px; fill: rgb(0, 102, 0); fill-opacity: 1;"/><path class="point" transform="translate(457.3,221.17)" d="M8.66,-5V5L0,10L-8.66,5V-5L0,-10Z" style="opacity: 0.7; stroke-width: 0px; fill: rgb(0, 102, 0); fill-opacity: 1;"/><path class="point" transform="translate(427.81,221.17)" d="M8.66,-5V5L0,10L-8.66,5V-5L0,-10Z" style="opacity: 0.7; stroke-width: 0px; fill: rgb(0, 102, 0); fill-opacity: 1;"/><path class="point" transform="translate(486.79,221.17)" d="M8.66,-5V5L0,10L-8.66,5V-5L0,-10Z" style="opacity: 0.7; stroke-width: 0px; fill: rgb(0, 102, 0); fill-opacity: 1;"/><path class="point" transform="translate(501.53,191.56)" d="M8.66,-5V5L0,10L-8.66,5V-5L0,-10Z" style="opacity: 0.7; stroke-width: 0px; fill: rgb(0, 102, 0); fill-opacity: 1;"/><path class="point" transform="translate(442.56,191.56)" d="M8.66,-5V5L0,10L-8.66,5V-5L0,-10Z" style="opacity: 0.7; stroke-width: 0px; fill: rgb(0, 102, 0); fill-opacity: 1;"/><path class="point" transform="translate(472.04,250.78)" d="M8.66,-5V5L0,10L-8.66,5V-5L0,-10Z" style="opacity: 0.7; stroke-width: 0px; fill: rgb(0, 102, 0); fill-opacity: 1;"/><path class="point" transform="translate(486.79,161.94)" d="M8.66,-5V5L0,10L-8.66,5V-5L0,-10Z" style="opacity: 0.7; stroke-width: 0px; fill: rgb(0, 102, 0); fill-opacity: 1;"/><path class="point" transform="translate(560.5,250.78)" d="M8.66,-5V5L0,10L-8.66,5V-5L0,-10Z" style="opacity: 0.7; stroke-width: 0px; fill: rgb(0, 102, 0); fill-opacity: 1;"/></g></g><g class="trace scatter" style="stroke-miterlimit: 2; opacity: 1;"><g class="points"><path class="point" transform="translate(472.04,487.67)" d="M8.66,-5V5L0,10L-8.66,5V-5L0,-10Z" style="opacity: 0.7; stroke-width: 0px; fill: rgb(102, 0, 255); fill-opacity: 1;"/><path class="point" transform="translate(516.27,458.06)" d="M8.66,-5V5L0,10L-8.66,5V-5L0,-10Z" style="opacity: 0.7; stroke-width: 0px; fill: rgb(102, 0, 255); fill-opacity: 1;"/><path class="point" transform="translate(545.76,517.28)" d="M8.66,-5V5L0,10L-8.66,5V-5L0,-10Z" style="opacity: 0.7; stroke-width: 0px; fill: rgb(102, 0, 255); fill-opacity: 1;"/><path class="point" transform="translate(442.56,487.67)" d="M8.66,-5V5L0,10L-8.66,5V-5L0,-10Z" style="opacity: 0.7; stroke-width: 0px; fill: rgb(102, 0, 255); fill-opacity: 1;"/><path class="point" transform="translate(442.56,546.89)" d="M8.66,-5V5L0,10L-8.66,5V-5L0,-10Z" style="opacity: 0.7; stroke-width: 0px; fill: rgb(102, 0, 255); fill-opacity: 1;"/><path class="point" transform="translate(472.04,546.89)" d="M8.66,-5V5L0,10L-8.66,5V-5L0,-10Z" style="opacity: 0.7; stroke-width: 0px; fill: rgb(102, 0, 255); fill-opacity: 1;"/><path class="point" transform="translate(457.3,517.28)" d="M8.66,-5V5L0,10L-8.66,5V-5L0,-10Z" style="opacity: 0.7; stroke-width: 0px; fill: rgb(102, 0, 255); fill-opacity: 1;"/><path class="point" transform="translate(501.53,546.89)" d="M8.66,-5V5L0,10L-8.66,5V-5L0,-10Z" style="opacity: 0.7; stroke-width: 0px; fill: rgb(102, 0, 255); fill-opacity: 1;"/><path class="point" transform="translate(545.76,458.06)" d="M8.66,-5V5L0,10L-8.66,5V-5L0,-10Z" style="opacity: 0.7; stroke-width: 0px; fill: rgb(102, 0, 255); fill-opacity: 1;"/><path class="point" transform="translate(427.81,517.28)" d="M8.66,-5V5L0,10L-8.66,5V-5L0,-10Z" style="opacity: 0.7; stroke-width: 0px; fill: rgb(102, 0, 255); fill-opacity: 1;"/><path class="point" transform="translate(516.27,517.28)" d="M8.66,-5V5L0,10L-8.66,5V-5L0,-10Z" style="opacity: 0.7; stroke-width: 0px; fill: rgb(102, 0, 255); fill-opacity: 1;"/></g></g><g class="trace scatter" style="stroke-miterlimit: 2; opacity: 1;"><g class="points"><path class="point" transform="translate(162.44,398.83)" d="M8.66,-5V5L0,10L-8.66,5V-5L0,-10Z" style="opacity: 0.7; stroke-width: 0px; fill: rgb(153, 153, 153); fill-opacity: 1;"/><path class="point" transform="translate(339.36,161.94)" d="M8.66,-5V5L0,10L-8.66,5V-5L0,-10Z" style="opacity: 0.7; stroke-width: 0px; fill: rgb(153, 153, 153); fill-opacity: 1;"/></g></g><g class="trace scatter" style="stroke-miterlimit: 2; opacity: 1;"><g class="points"><path class="point" transform="translate(472.04,369.22)" d="M8.66,-5V5L0,10L-8.66,5V-5L0,-10Z" style="opacity: 0.7; stroke-width: 0px; fill: rgb(153, 153, 153); fill-opacity: 1;"/></g></g><g class="trace scatter" style="stroke-miterlimit: 2; opacity: 1;"><g class="points"><path class="point" transform="translate(383.59,191.56)" d="M8.66,-5V5L0,10L-8.66,5V-5L0,-10Z" style="opacity: 0.7; stroke-width: 0px; fill: rgb(153, 153, 153); fill-opacity: 1;"/></g></g></g></svg><g/><path class="crisp" transform="translate(80,100)" d="M-1,620.5h607" style="fill: none; stroke-width: 1px; stroke: rgb(0, 0, 0); stroke-opacity: 0;"/><path class="crisp" transform="translate(80,100)" d="M-0.5,-1v621" stroke-width="1px" style="fill: none; stroke: rgb(0, 0, 0); stroke-opacity: 0;"/><g/><g transform="translate(80,100)"/><g transform="translate(80,100)"/><g/></g><g transform="translate(80,100)"/><g class="infolayer"><g class="g-gtitle"><text class="gtitle" x="400" y="50" text-anchor="middle" style="font-family: 'Open sans', verdana, arial, sans-serif; font-size: 17px; fill: rgb(68, 68, 68); opacity: 1; visibility: visible;"><tspan class="line" dy="0em" x="400" y="50" text-anchor="middle">Абитуриенты Техносферы</tspan><tspan class="line" dy="1.3em" x="400" y="50" text-anchor="middle">весна 2015</tspan></text></g><g class="g-xtitle"/><g class="g-ytitle"/><svg class="legend" x="697" y="100" width="91" height="162"><rect class="bg" x="0" y="0" width="91" height="162" style="stroke: rgb(68, 68, 68); stroke-opacity: 1; fill: rgb(255, 255, 255); fill-opacity: 1; stroke-width: 0px;"/><g class="traces" transform="translate(0,14.5)" style="opacity: 1;"><g class="legendfill"/><g class="legendlines"/><g class="legendsymbols" style="opacity: 1;"><g class="legendpoints"><path class="scatterpts" transform="translate(20,0)" d="M6.93,-4V4L0,8L-6.93,4V-4L0,-8Z" style="opacity: 0.7; stroke-width: 0px; fill: rgb(0, 0, 255); fill-opacity: 1;"/></g></g><text class="legendtext" x="40" y="4.680000000000001" style="text-anchor: start; font-family: 'Open sans', verdana, arial, sans-serif; font-size: 12px; fill: rgb(68, 68, 68); fill-opacity: 1; visibility: visible;" data-bb="212">ВМК</text><rect class="legendtoggle" x="0" y="-9.5" height="19" width="85.515625" style="cursor: pointer; fill: rgb(0, 0, 0); fill-opacity: 0;"/></g><g class="traces" transform="translate(0,33.5)" style="opacity: 1;"><g class="legendfill"/><g class="legendlines"/><g class="legendsymbols" style="opacity: 1;"><g class="legendpoints"><path class="scatterpts" transform="translate(20,0)" d="M6.93,-4V4L0,8L-6.93,4V-4L0,-8Z" style="opacity: 0.7; stroke-width: 0px; fill: rgb(255, 153, 51); fill-opacity: 1;"/></g></g><text class="legendtext" x="40" y="4.680000000000001" style="text-anchor: start; font-family: 'Open sans', verdana, arial, sans-serif; font-size: 12px; fill: rgb(68, 68, 68); fill-opacity: 1; visibility: visible;" data-bb="213">Мехмат</text><rect class="legendtoggle" x="0" y="-9.5" height="19" width="85.515625" style="cursor: pointer; fill: rgb(0, 0, 0); fill-opacity: 0;"/></g><g class="traces" transform="translate(0,52.5)" style="opacity: 1;"><g class="legendfill"/><g class="legendlines"/><g class="legendsymbols" style="opacity: 1;"><g class="legendpoints"><path class="scatterpts" transform="translate(20,0)" d="M6.93,-4V4L0,8L-6.93,4V-4L0,-8Z" style="opacity: 0.7; stroke-width: 0px; fill: rgb(255, 0, 0); fill-opacity: 1;"/></g></g><text class="legendtext" x="40" y="4.680000000000001" style="text-anchor: start; font-family: 'Open sans', verdana, arial, sans-serif; font-size: 12px; fill: rgb(68, 68, 68); fill-opacity: 1; visibility: visible;" data-bb="214">Физфак</text><rect class="legendtoggle" x="0" y="-9.5" height="19" width="85.515625" style="cursor: pointer; fill: rgb(0, 0, 0); fill-opacity: 0;"/></g><g class="traces" transform="translate(0,71.5)" style="opacity: 1;"><g class="legendfill"/><g class="legendlines"/><g class="legendsymbols" style="opacity: 1;"><g class="legendpoints"><path class="scatterpts" transform="translate(20,0)" d="M6.93,-4V4L0,8L-6.93,4V-4L0,-8Z" style="opacity: 0.7; stroke-width: 0px; fill: rgb(0, 102, 0); fill-opacity: 1;"/></g></g><text class="legendtext" x="40" y="4.680000000000001" style="text-anchor: start; font-family: 'Open sans', verdana, arial, sans-serif; font-size: 12px; fill: rgb(68, 68, 68); fill-opacity: 1; visibility: visible;" data-bb="215">Биофак</text><rect class="legendtoggle" x="0" y="-9.5" height="19" width="85.515625" style="cursor: pointer; fill: rgb(0, 0, 0); fill-opacity: 0;"/></g><g class="traces" transform="translate(0,90.5)" style="opacity: 1;"><g class="legendfill"/><g class="legendlines"/><g class="legendsymbols" style="opacity: 1;"><g class="legendpoints"><path class="scatterpts" transform="translate(20,0)" d="M6.93,-4V4L0,8L-6.93,4V-4L0,-8Z" style="opacity: 0.7; stroke-width: 0px; fill: rgb(102, 0, 255); fill-opacity: 1;"/></g></g><text class="legendtext" x="40" y="4.680000000000001" style="text-anchor: start; font-family: 'Open sans', verdana, arial, sans-serif; font-size: 12px; fill: rgb(68, 68, 68); fill-opacity: 1; visibility: visible;" data-bb="216">Химфак</text><rect class="legendtoggle" x="0" y="-9.5" height="19" width="85.515625" style="cursor: pointer; fill: rgb(0, 0, 0); fill-opacity: 0;"/></g><g class="traces" transform="translate(0,109.5)" style="opacity: 1;"><g class="legendfill"/><g class="legendlines"/><g class="legendsymbols" style="opacity: 1;"><g class="legendpoints"><path class="scatterpts" transform="translate(20,0)" d="M6.93,-4V4L0,8L-6.93,4V-4L0,-8Z" style="opacity: 0.7; stroke-width: 0px; fill: rgb(153, 153, 153); fill-opacity: 1;"/></g></g><text class="legendtext" x="40" y="4.680000000000001" style="text-anchor: start; font-family: 'Open sans', verdana, arial, sans-serif; font-size: 12px; fill: rgb(68, 68, 68); fill-opacity: 1; visibility: visible;" data-bb="217">Эконом</text><rect class="legendtoggle" x="0" y="-9.5" height="19" width="85.515625" style="cursor: pointer; fill: rgb(0, 0, 0); fill-opacity: 0;"/></g><g class="traces" transform="translate(0,128.5)" style="opacity: 1;"><g class="legendfill"/><g class="legendlines"/><g class="legendsymbols" style="opacity: 1;"><g class="legendpoints"><path class="scatterpts" transform="translate(20,0)" d="M6.93,-4V4L0,8L-6.93,4V-4L0,-8Z" style="opacity: 0.7; stroke-width: 0px; fill: rgb(153, 153, 153); fill-opacity: 1;"/></g></g><text class="legendtext" x="40" y="4.680000000000001" style="text-anchor: start; font-family: 'Open sans', verdana, arial, sans-serif; font-size: 12px; fill: rgb(68, 68, 68); fill-opacity: 1; visibility: visible;" data-bb="218">ИСАА</text><rect class="legendtoggle" x="0" y="-9.5" height="19" width="85.515625" style="cursor: pointer; fill: rgb(0, 0, 0); fill-opacity: 0;"/></g><g class="traces" transform="translate(0,147.5)" style="opacity: 1;"><g class="legendfill"/><g class="legendlines"/><g class="legendsymbols" style="opacity: 1;"><g class="legendpoints"><path class="scatterpts" transform="translate(20,0)" d="M6.93,-4V4L0,8L-6.93,4V-4L0,-8Z" style="opacity: 0.7; stroke-width: 0px; fill: rgb(153, 153, 153); fill-opacity: 1;"/></g></g><text class="legendtext" x="40" y="4.680000000000001" style="text-anchor: start; font-family: 'Open sans', verdana, arial, sans-serif; font-size: 12px; fill: rgb(68, 68, 68); fill-opacity: 1; visibility: visible;" data-bb="219">Филфак</text><rect class="legendtoggle" x="0" y="-9.5" height="19" width="85.515625" style="cursor: pointer; fill: rgb(0, 0, 0); fill-opacity: 0;"/></g></svg></g><g class="hoverlayer" style="pointer-events: none;"/><text class="js-plot-link-container" text-anchor="end" x="793" y="791" style="font-family: 'Open Sans', Arial, sans-serif; font-size: 12px; fill: rgb(68, 68, 68);"><tspan class="js-link-to-tool"/><tspan class="js-link-spacer"/><tspan class="js-sourcelinks"/></text></svg>